<svg width="10" height="11" viewBox="0 0 10 11" fill="none" xmlns="http://www.w3.org/2000/svg">
<g clip-path="url(#clip0_2_29)">
<path d="M9.02087 4.66453H8.70798V4.64841H5.21197V6.20219H7.40727C7.087 7.10668 6.2264 7.75597 5.21197 7.75597C3.92486 7.75597 2.8813 6.71241 2.8813 5.4253C2.8813 4.13818 3.92486 3.09463 5.21197 3.09463C5.8061 3.09463 6.34662 3.31876 6.75818 3.68487L7.85689 2.58615C7.16313 1.93959 6.23514 1.54085 5.21197 1.54085C3.06678 1.54085 1.32752 3.28011 1.32752 5.4253C1.32752 7.57048 3.06678 9.30975 5.21197 9.30975C7.35716 9.30975 9.09642 7.57048 9.09642 5.4253C9.09642 5.16484 9.06962 4.91061 9.02087 4.66453Z" fill="#FFC107"/>
<path d="M1.77544 3.61728L3.05168 4.55324C3.39701 3.69827 4.23333 3.09463 5.21202 3.09463C5.80614 3.09463 6.34666 3.31876 6.75822 3.68487L7.85694 2.58615C7.16317 1.93959 6.23518 1.54085 5.21202 1.54085C3.72 1.54085 2.42609 2.38319 1.77544 3.61728Z" fill="#FF3D00"/>
<path d="M5.21196 9.30976C6.21531 9.30976 7.12699 8.92579 7.81629 8.30136L6.61405 7.28402C6.21095 7.59058 5.71839 7.75639 5.21196 7.75598C4.20162 7.75598 3.34373 7.11175 3.02055 6.21269L1.75383 7.18866C2.39671 8.44664 3.70227 9.30976 5.21196 9.30976Z" fill="#4CAF50"/>
<path d="M9.02089 4.66454H8.70799V4.64841H5.21199V6.20219H7.40729C7.25409 6.63267 6.97812 7.00883 6.6135 7.28421L6.61408 7.28382L7.81632 8.30116C7.73125 8.37846 9.09644 7.36753 9.09644 5.4253C9.09644 5.16485 9.06964 4.91061 9.02089 4.66454Z" fill="#1976D2"/>
</g>
<defs>
<clipPath id="clip0_2_29">
<rect width="9.32268" height="9.32268" fill="white" transform="translate(0.55069 0.763947)"/>
</clipPath>
</defs>
</svg>
